<svg xmlns="http://www.w3.org/2000/svg" viewBox="0 0 1200 700"><rect width="1200" height="700" fill="#f5f7fc"/><rect width="230" height="700" fill="#fff"/><rect width="1200" height="42" fill="#ffd8d5"/><text x="30" y="48" font-family="Arial" font-size="22" font-weight="700" fill="#075985">SIF-SENTINEL</text><text x="260" y="28" font-family="Arial" font-size="13" fill="#991b1b">ILLUSTRATIVE DEMO DATA - NOT OIL PRODUCTION DATA</text><text x="260" y="105" font-family="Arial" font-size="30" font-weight="700" fill="#0f172a">SIF Analysis</text><text x="260" y="132" font-family="Arial" font-size="15" fill="#64748b">How serious could exposures have been?</text><g fill="#fff" stroke="#dbe3f0"><rect x="260" y="165" width="280" height="110"/><rect x="560" y="165" width="280" height="110"/><rect x="860" y="165" width="300" height="110"/><rect x="260" y="300" width="580" height="300"/><rect x="860" y="300" width="300" height="300"/></g><g font-family="Arial" fill="#0f172a"><text x="280" y="195" font-size="13">SIF POTENTIAL</text><text x="280" y="240" font-size="32" font-weight="700">2,814</text><text x="580" y="195" font-size="13" fill="#dc2626">HIGH SIF EXPOSURE</text><text x="580" y="240" font-size="32" font-weight="700" fill="#dc2626">438</text><text x="880" y="195" font-size="13">TREND VELOCITY</text><text x="880" y="240" font-size="32" font-weight="700">-4.8%</text><text x="280" y="335" font-size="20" font-weight="700">SIF Trend</text><path d="M300 530 L390 510 L480 520 L570 455 L660 470 L750 420 L800 440" fill="none" stroke="#075985" stroke-width="5"/><path d="M300 530 L390 510 L480 520 L570 455 L660 470 L750 420 L800 440 L800 560 L300 560 Z" fill="#dbeafe" opacity=".8"/><text x="880" y="335" font-size="20" font-weight="700">By Site &amp; Field Asset</text><text x="880" y="390" font-size="14">Dulijan Central</text><rect x="880" y="400" width="220" height="12" fill="#075985"/><text x="880" y="450" font-size="14">Moran Asset</text><rect x="880" y="460" width="175" height="12" fill="#0e7490"/><text x="880" y="510" font-size="14">Digboi Oilfield</text><rect x="880" y="520" width="140" height="12" fill="#64748b"/></g></svg>